<svg id="Layer_35" enable-background="new 0 0 64 64" height="512" viewBox="0 0 64 64" width="512" xmlns="http://www.w3.org/2000/svg"><path d="m43 41h6.001v2h-6.001z"/><circle cx="19" cy="18" r="3"/><path d="m31.348 34.628 9.776 5.703c.277-.773 1.009-1.331 1.876-1.331h6c.867 0 1.599.558 1.876 1.331l9.776-5.703c-.5-.962-1.495-1.628-2.652-1.628h-24c-1.157 0-2.152.666-2.652 1.628z"/><path d="m29 52v-1h-24v-42h28v22.101c.323-.066.658-.101 1-.101h1v-4-1-20c0-1.654-1.346-3-3-3h-3v1c0 1.654-1.346 3-3 3h-14c-1.654 0-3-1.346-3-3v-1h-3c-1.654 0-3 1.346-3 3v47h26.101c-.066-.323-.101-.658-.101-1z"/><path d="m20 23h-2c-3.521 0-6.442 2.612-6.929 6h15.857c-.486-3.388-3.407-6-6.928-6z"/><path d="m39 27c0-1.103.897-2 2-2h10c1.103 0 2 .897 2 2v4h2v-5c0-1.654-1.346-3-3-3h-12c-1.654 0-3 1.346-3 3v1 4h2z"/><path d="m51 42.575v.425c0 1.103-.897 2-2 2h-6c-1.103 0-2-.897-2-2v-.425l-10-5.833v15.258c0 1.654 1.346 3 3 3h24c1.654 0 3-1.346 3-3v-15.258zm0 10.425h-2v-2h2zm4 0h-2v-2h2zm4 0h-2v-2h2z"/><path d="m29 49v-13c0-1.627.793-3.061 2-3.974v-21.026h-24v38zm-6-2h-2v-2h2zm4 0h-2v-2h2zm0-12h-14v-2h14zm-18-22h2v2h-2zm0 4h2v2h-2zm0 4h2v2h-2zm0 9c0-4.042 2.679-7.469 6.354-8.602-.833-.893-1.354-2.083-1.354-3.398 0-2.757 2.243-5 5-5s5 2.243 5 5c0 1.315-.521 2.505-1.354 3.398 3.675 1.133 6.354 4.56 6.354 8.602v1h-20zm0 3h2v2h-2zm0 4h18v2h-18zm0 4h18v2h-18zm0 4h10v2h-10z"/><path d="m12 5h14c.551 0 1-.449 1-1v-1h-16v1c0 .551.449 1 1 1z"/><path d="m30.026 55h-27.026v3c0 1.654 1.346 3 3 3h26c1.654 0 3-1.346 3-3v-1h-1c-1.627 0-3.061-.793-3.974-2zm-7.026 4h-8v-2h8z"/></svg>