<svg id="Layer_35" enable-background="new 0 0 64 64" height="512" viewBox="0 0 64 64" width="512" xmlns="http://www.w3.org/2000/svg"><path d="m49.62 18h2.38c2.209 0 4-1.791 4-4 2.209 0 4-1.791 4-4v-.537l-.039.004c1.212-.688 2.039-1.974 2.039-3.467h-11.639c-.681 0-1.356.078-2.018.214 1.044 1.682 1.657 3.66 1.657 5.786 0 2.173-.639 4.194-1.727 5.9.445.061.894.1 1.347.1z"/><path d="m18.039 9.467-.039-.004v.537c0 2.209 1.791 4 4 4 0 2.209 1.791 4 4 4h2.38c.453 0 .902-.039 1.347-.101-1.088-1.706-1.727-3.726-1.727-5.899 0-2.126.613-4.104 1.657-5.786-.662-.136-1.337-.214-2.018-.214h-11.639c0 1.493.827 2.779 2.039 3.467z"/><path d="m52 26c-4.963 0-9 4.038-9 9 0 4.963 4.037 9 9 9s9-4.037 9-9c0-4.962-4.037-9-9-9zm0 8c1.654 0 3 1.346 3 3v3h-2v2h-2v-2.184c-1.161-.414-2-1.514-2-2.816h2c0 .552.448 1 1 1h1v-1c0-.552-.448-1-1-1-1.654 0-3-1.346-3-3v-3h2v-2h2v2.184c1.161.414 2 1.514 2 2.816h-2c0-.551-.448-1-1-1h-1v1c0 .552.448 1 1 1z"/><path d="m38 43c-4.963 0-9 4.037-9 9s4.037 9 9 9 9-4.037 9-9-4.037-9-9-9zm0 8c1.654 0 3 1.346 3 3v3h-2v2h-2v-2.184c-1.161-.414-2-1.514-2-2.816h2c0 .552.448 1 1 1h1v-1c0-.552-.448-1-1-1-1.654 0-3-1.346-3-3v-3h2v-2h2v2.184c1.161.414 2 1.514 2 2.816h-2c0-.552-.448-1-1-1h-1v1c0 .552.448 1 1 1z"/><path d="m31.912 15.495c.526-.324 1.132-.495 1.75-.495 1.841 0 3.338 1.498 3.338 3.338v.39c0 .685-.227 1.323-.6 1.869.842.258 1.71.403 2.6.403 4.963 0 9-4.038 9-9s-4.037-9-9-9-9 4.038-9 9c0 1.421.352 2.803.992 4.061zm7.088-2.495c-1.654 0-3-1.346-3-3v-3h2v-2h2v2.184c1.161.414 2 1.514 2 2.816h-2c0-.551-.448-1-1-1h-1v1c0 .551.448 1 1 1 1.654 0 3 1.346 3 3v3h-2v2h-2v-2.184c-1.161-.414-2-1.514-2-2.816h2c0 .551.448 1 1 1h1v-1c0-.551-.448-1-1-1z"/><path d="m35 18.728v-.39c0-.737-.601-1.338-1.338-1.338-.248 0-.49.068-.701.198l-10.99 6.763c-1.104.68-2.372 1.039-3.669 1.039h-5.302-1c-4.963 0-9 4.038-9 9v7c0 1.103.897 2 2 2h1v-11h2v27c0 1.103.897 2 2 2s2-.897 2-2v-18h2v18c0 1.103.897 2 2 2s2-.897 2-2v-24.735c0-2.384 1.195-4.582 3.196-5.877l13.192-8.536c.383-.248.612-.668.612-1.124z"/><circle cx="13" cy="18" r="5"/></svg>