<svg id="Layer_35" enable-background="new 0 0 64 64" height="512" viewBox="0 0 64 64" width="512" xmlns="http://www.w3.org/2000/svg"><path d="m36.603 34.467-3.122 2.6 1.977 1.977z"/><path d="m44 45c0-4.204-2.177-7.903-5.458-10.047l-2 8.003-4.542-4.542-4.542 4.542-2-8.003c-3.281 2.144-5.458 5.843-5.458 10.047h3v-5h2v5h14v-5h2v5zm-11-2h-2v-2h2z"/><path d="m52.949 31h2.025c-.511-11.888-10.086-21.463-21.974-21.975v2.025c10.78.512 19.438 9.17 19.949 19.95z"/><path d="m28.542 39.044 1.977-1.977-3.122-2.6z"/><path d="m29.18 33.348 2.82 2.35 2.82-2.35c-.906-.219-1.847-.348-2.82-.348s-1.914.129-2.82.348z"/><path d="m31 13.051c-9.677.507-17.442 8.272-17.949 17.949h4.949v2h-4.949c.238 4.543 2.071 8.66 4.959 11.811.082-6.116 4.101-11.291 9.636-13.109-2.191-1.428-3.646-3.897-3.646-6.702 0-4.411 3.589-8 8-8s8 3.589 8 8c0 2.805-1.455 5.274-3.646 6.702 5.535 1.817 9.554 6.993 9.636 13.109 2.888-3.151 4.721-7.268 4.959-11.811h-4.949v-2h4.949c-.507-9.677-8.272-17.442-17.949-17.949v1.949h-2zm-13.737 16.136-1.965-.373c.136-.716.32-1.431.548-2.126l1.9.625c-.201.612-.363 1.243-.483 1.874zm1.244-3.749-1.798-.877c1.659-3.404 4.448-6.192 7.853-7.852l.876 1.797c-3.005 1.466-5.466 3.928-6.931 6.932zm30.076 2.798-1.951.441c-.137-.607-.314-1.212-.527-1.796l1.88-.684c.24.664.441 1.35.598 2.039zm-2.533-5.81c.399.584.764 1.198 1.086 1.826l-1.78.912c-.283-.554-.605-1.095-.957-1.609zm-2.805-3.176c.531.469 1.036.974 1.501 1.501l-1.499 1.324c-.411-.466-.857-.912-1.326-1.325z"/><path d="m33 52.949v2.025c11.888-.511 21.463-10.086 21.975-21.974h-2.025c-.512 10.78-9.17 19.438-19.95 19.949z"/><path d="m58.697 27.953-.102-.589c-.683-3.945-2.201-7.609-4.512-10.89l-.344-.488 1.086-2.174-4.637-4.638-2.173 1.087-.488-.345c-3.282-2.312-6.946-3.83-10.89-4.512l-.589-.102-.769-2.302h-2.279v4.025c12.99.515 23.46 10.985 23.975 23.975h4.025v-2.279z"/><path d="m33 56.975v4.025h2.279l.768-2.304.589-.102c3.944-.682 7.608-2.2 10.89-4.512l.488-.345 2.173 1.087 4.637-4.638-1.086-2.173.344-.489c2.312-3.282 3.83-6.945 4.512-10.89l.102-.589 2.304-.766v-2.279h-4.025c-.515 12.99-10.985 23.46-23.975 23.975z"/><path d="m33 50.949c3.989-.209 7.651-1.645 10.619-3.949h-23.238c2.968 2.305 6.63 3.74 10.619 3.949v-1.949h2z"/><circle cx="32" cy="25" r="6"/><path d="m11.051 33h-2.026c.512 11.888 10.087 21.463 21.975 21.975v-2.025c-10.78-.512-19.438-9.17-19.949-19.95z"/><path d="m31 7.025v-4.025h-2.279l-.768 2.304-.589.102c-3.944.682-7.608 2.2-10.89 4.512l-.488.345-2.173-1.087-4.637 4.638 1.086 2.174-.344.488c-2.312 3.28-3.83 6.944-4.512 10.89l-.102.589-2.304.766v2.279h4.025c.515-12.99 10.985-23.46 23.975-23.975z"/><path d="m7.025 33h-4.025v2.279l2.303.768.102.589c.683 3.944 2.201 7.607 4.512 10.89l.344.489-1.086 2.173 4.637 4.638 2.173-1.087.488.345c3.282 2.312 6.946 3.83 10.89 4.512l.589.102.769 2.302h2.279v-4.025c-12.99-.515-23.46-10.985-23.975-23.975z"/><path d="m31 11.051v-2.026c-11.888.512-21.463 10.087-21.975 21.975h2.025c.512-10.78 9.17-19.438 19.95-19.949z"/></svg>