<svg id="Layer_35" enable-background="new 0 0 64 64" height="512" viewBox="0 0 64 64" width="512" xmlns="http://www.w3.org/2000/svg"><path d="m29 35.414-2-2-1.586 1.586 3.586 3.586 8.586-8.586-1.586-1.586z"/><path d="m18.936 43.478-2.022 2.022 1.586 1.586 2.022-2.022c-.565-.492-1.094-1.021-1.586-1.586z"/><path d="m3.95 55.464c-.613.613-.95 1.427-.95 2.293 0 1.788 1.455 3.243 3.243 3.243.866 0 1.68-.337 2.293-.95l10.05-10.05-4.586-4.586z"/><path d="m47.081 17.801c-.649.275-1.255.631-1.83 1.036l5.749 5.749 5.752-5.752c-.571-.404-1.183-.754-1.833-1.032-.372 1.822-1.988 3.198-3.919 3.198s-3.547-1.376-3.919-3.199z"/><circle cx="51" cy="9" r="6"/><path d="m31 23c-5.514 0-10 4.486-10 10s4.486 10 10 10 10-4.486 10-10-4.486-10-10-10zm-2 18.414-6.414-6.414 4.414-4.414 2 2 7-7 4.414 4.414z"/><path d="m58.265 20.149-7.265 7.265-7.275-7.275c-.483.513-.899 1.094-1.271 1.712 2.808 2.884 4.546 6.815 4.546 11.149 0 1.94-.365 3.792-1 5.515v20.485c0 1.103.897 2 2 2s2-.897 2-2v-22h2v22c0 1.103.897 2 2 2s2-.897 2-2v-33h2v13c1.654 0 3-1.346 3-3v-9c0-2.652-1.045-5.059-2.735-6.851z"/><path d="m31 19c-7.72 0-14 6.28-14 14s6.28 14 14 14 14-6.28 14-14-6.28-14-14-14zm0 26c-6.617 0-12-5.383-12-12s5.383-12 12-12 12 5.383 12 12-5.383 12-12 12z"/><path d="m52.98 17.198c-.64-.129-1.302-.198-1.98-.198-.676 0-1.333.089-1.978.219.111.999.95 1.781 1.978 1.781 1.035 0 1.879-.793 1.98-1.802z"/><path d="m8 13h15v-5c0-2.757-2.243-5-5-5h-10c-2.757 0-5 2.243-5 5s2.243 5 5 5zm9-2h-2v-2h2zm4 0h-2v-2h2zm-16-6h16v2h-16zm0 4h8v2h-8z"/></svg>