<svg id="Layer_35" enable-background="new 0 0 64 64" height="512" viewBox="0 0 64 64" width="512" xmlns="http://www.w3.org/2000/svg"><path d="m21 46v2h4.051c-.021-.332-.051-.662-.051-1s.03-.668.051-1z"/><path d="m41 37c-5.514 0-10 4.486-10 10s4.486 10 10 10 10-4.486 10-10-4.486-10-10-10zm0 18v-2c.59 0 1.173-.085 1.732-.253l.576 1.915c-.746.224-1.523.338-2.308.338zm4.412-1.326-1.104-1.667c1.686-1.117 2.692-2.988 2.692-5.007 0-3.309-2.691-6-6-6v-2c4.411 0 8 3.589 8 8 0 2.691-1.341 5.186-3.588 6.674z"/><path d="m41 33c-7.72 0-14 6.28-14 14s6.28 14 14 14 14-6.28 14-14-6.28-14-14-14zm0 26c-6.617 0-12-5.383-12-12s5.383-12 12-12 12 5.383 12 12-5.383 12-12 12z"/><path d="m27.782 38c2.884-4.222 7.732-7 13.218-7 .338 0 .668.03 1 .051v-4.051h-20v11z"/><path d="m28 15c-3.309 0-6 2.691-6 6h12c0-3.309-2.691-6-6-6z"/><circle cx="28" cy="10" r="3"/><path d="m20 25h24v6.292c.683.13 1.35.305 2 .519v-28.811h-28v39h3v2h4.292c.269-1.409.73-2.747 1.343-4h-6.635zm18-20h6v2h-6zm0 4h6v2h-6zm0 4h6v2h-6zm0 4h6v2h-6zm0 4h6v2h-6zm-18 0c0-3.232 1.93-6.016 4.695-7.277-1.031-.917-1.695-2.238-1.695-3.723 0-2.757 2.243-5 5-5s5 2.243 5 5c0 1.485-.664 2.806-1.695 3.723 2.765 1.261 4.695 4.045 4.695 7.277v2h-16z"/><path d="m16 27.686v-6.097c-.181.02-.363.04-.537.077-1.568.333-2.912 1.257-3.785 2.601-.872 1.344-1.17 2.948-.836 4.515z"/><path d="m11.605 42-1.89-8.889 6.285-1.336v-2.045l-6.701 1.425-.414-1.958c-.444-2.089-.048-4.228 1.116-6.02.529-.815 1.194-1.507 1.952-2.069-.084-.048-.171-.087-.253-.14-1.12-.728-1.891-1.848-2.168-3.154s-.03-2.642.697-3.762 1.848-1.89 3.153-2.167c.884-.189 1.782-.124 2.617.16v-2.761l-12.812 2.723 6.374 29.993z"/><path d="m48 9.284v23.351c2.965 1.451 5.423 3.778 7.014 6.659l5.799-27.287zm6.699 21.871-5.869-1.248.416-1.956 5.869 1.248zm.832-3.913-5.869-1.248.416-1.956 5.869 1.248zm.831-3.912-5.868-1.248.416-1.956 5.868 1.248zm.832-3.913-5.869-1.248.416-1.956 5.869 1.248zm-5.037-5.16.416-1.956 5.869 1.248-.416 1.956z"/><path d="m3 47c0 1.654 1.346 3 3 3h13v-6h-13c-1.654 0-3 1.346-3 3z"/><path d="m16 42v-8.18l-3.911.831 1.562 7.349z"/><path d="m16 14.263c-.662-.42-1.441-.583-2.201-.422-.783.167-1.455.629-1.892 1.301s-.585 1.474-.418 2.257c.166.784.628 1.456 1.3 1.893s1.473.585 2.258.418c.337-.072.651-.228.953-.424z"/></svg>